<svg xmlns="http://www.w3.org/2000/svg" xmlns:xlink="http://www.w3.org/1999/xlink" viewBox="0 0 160 120">
  <defs>
    <linearGradient id="亮-b" x1="32.385%" x2="32.385%" y1="100%" y2="3.716%">
      <stop offset="0%" stop-color="#E0E5F0"/>
      <stop offset="100%" stop-color="#BBC2D2"/>
    </linearGradient>
    <path id="亮-a" d="M15.3059656,0.0948680398 L15.5545257,0.0960734934 C18.0089938,0.107977039 20.0042181,2.07876428 20.0463667,4.53289927 L20.6118429,37.4582381 C20.6546567,39.9511047 18.6684964,42.0066798 16.1756297,42.0494935 C16.1424948,42.0500626 16.1093546,42.0502668 16.0762151,42.0501061 L15.827655,42.0489006 C13.3731869,42.0369971 11.3779626,40.0662099 11.335814,37.6120749 L10.7703378,4.68673609 C10.727524,2.19386944 12.7136844,0.138294336 15.206551,0.0954805956 C15.2396859,0.0949115196 15.2728261,0.094707322 15.3059656,0.0948680398 Z"/>
    <filter id="亮-c" width="130.4%" height="130.9%" x="-15.2%" y="-15.4%" filterUnits="objectBoundingBox">
      <feGaussianBlur in="SourceGraphic" stdDeviation="3.8"/>
    </filter>
    <linearGradient id="亮-e" x1="29.832%" x2="66.744%" y1="14.742%" y2="80.015%">
      <stop offset="0%" stop-color="#FFF"/>
      <stop offset="83.348%" stop-color="#E9EDF3"/>
      <stop offset="100%" stop-color="#E6EBF2"/>
    </linearGradient>
    <linearGradient id="亮-f" x1="32.414%" x2="65.685%" y1="0%" y2="100%">
      <stop offset="0%" stop-color="#E1E6F0"/>
      <stop offset="100%" stop-color="#D7DDE8"/>
    </linearGradient>
    <linearGradient id="亮-g" x1="32.385%" x2="32.385%" y1="100%" y2="0%">
      <stop offset="0%" stop-color="#E2E8F2"/>
      <stop offset="100%" stop-color="#CAD6E3"/>
    </linearGradient>
    <linearGradient id="亮-h" x1="32.385%" x2="32.385%" y1="100%" y2="0%">
      <stop offset="0%" stop-color="#E2E8F2"/>
      <stop offset="100%" stop-color="#CAD6E3"/>
    </linearGradient>
    <linearGradient id="亮-i" x1="32.385%" x2="32.385%" y1="100%" y2="0%">
      <stop offset="0%" stop-color="#E2E8F2"/>
      <stop offset="100%" stop-color="#CAD6E3"/>
    </linearGradient>
    <linearGradient id="亮-j" x1="32.385%" x2="32.385%" y1="100%" y2="0%">
      <stop offset="0%" stop-color="#E2E8F2"/>
      <stop offset="100%" stop-color="#CAD6E3"/>
    </linearGradient>
  </defs>
  <g fill="none" fill-rule="evenodd">
    <g transform="translate(-1)">
      <g fill="#4C649A" transform="translate(16.65 107.429)">
        <ellipse cx="63.35" cy="4.571" opacity=".103" rx="24" ry="1"/>
        <ellipse cx="14.85" cy="1.571" opacity=".103" rx="14.5" ry="1"/>
      </g>
      <g transform="translate(44.18 11.619)">
        <g transform="translate(40.958 53.995)">
          <mask id="亮-d" fill="#fff">
            <use xlink:href="#亮-a"/>
          </mask>
          <use fill="url(#亮-b)" transform="rotate(-30 15.691 21.072)" xlink:href="#亮-a"/>
          <path fill="#CDD5E5" fill-rule="nonzero" d="M-6.30941166,16.1002393 C14.3785872,16.1002393 31.1633383,-0.436267698 31.1633383,-20.8521416 C31.1633383,-41.2680156 14.3785872,-57.8045226 -6.30941166,-57.8045226 C-26.9974105,-57.8045226 -43.7821617,-41.2680156 -43.7821617,-20.8521416 C-43.7821617,-0.436267698 -26.9974105,16.1002393 -6.30941166,16.1002393 Z M-6.50059916,7.33833454 C-22.2411452,7.33833454 -34.9875367,-5.20533669 -34.9875367,-20.6616655 C-34.9875367,-36.1179942 -22.2411452,-48.6616655 -6.50059916,-48.6616655 C9.23994692,-48.6616655 21.9863383,-36.1179942 21.9863383,-20.6616655 C21.9863383,-5.20533669 9.23994692,7.33833454 -6.50059916,7.33833454 Z" filter="url(#亮-c)" mask="url(#亮-d)"/>
        </g>
        <circle cx="33.819" cy="33.381" r="27" fill="url(#亮-e)" opacity=".296"/>
        <path fill="url(#亮-f)" fill-rule="nonzero" d="M35.89675,39.4829574 L35.89675,38.9789574 C35.89675,38.1149574 36.077875,37.3229574 36.440125,36.6029574 C36.76615,35.9549574 37.237075,35.3429574 37.889125,34.8389574 C39.627925,33.3269574 40.67845,32.3549574 41.004475,31.9949574 C41.873875,30.8429574 42.3448,29.3669574 42.3448,27.5669574 C42.3448,25.3709574 41.6203,23.6429574 40.1713,22.3829574 C38.7223,21.0869574 36.802375,20.4749574 34.44775,20.4749574 C31.7671,20.4749574 29.66605,21.2309574 28.108375,22.7429574 C26.514475,24.2549574 25.75375,26.3429574 25.75375,29.0069574 L29.8834,29.0069574 C29.8834,27.4589574 30.1732,26.2709574 30.789025,25.4429574 C31.513525,24.4709574 32.6365,24.0029574 34.194175,24.0029574 C35.425825,24.0029574 36.4039,24.3269574 37.092175,25.0109574 C37.744225,25.6949574 38.106475,26.6309574 38.106475,27.8189574 C38.106475,28.7189574 37.78045,29.5829574 37.1284,30.3749574 L36.6937,30.8789574 C34.339075,32.9669574 32.9263,34.4789574 32.455375,35.4509574 C31.948225,36.4229574 31.730875,37.6109574 31.730875,38.9789574 L31.730875,39.4829574 L35.89675,39.4829574 Z M33.7957,46.6829574 C34.59265,46.6829574 35.2447,46.4309574 35.8243,45.9269574 C36.33145,45.4229574 36.62125,44.7389574 36.62125,43.9469574 C36.62125,43.1549574 36.33145,42.5069574 35.8243,42.0029574 C35.280925,41.4989574 34.59265,41.2469574 33.7957,41.2469574 C32.99875,41.2469574 32.3467,41.4989574 31.83955,42.0029574 C31.25995,42.5069574 31.006375,43.1549574 31.006375,43.9469574 C31.006375,44.7389574 31.25995,45.3869574 31.83955,45.8909574 C32.3467,46.3949574 32.99875,46.6829574 33.7957,46.6829574 Z M33.819375,66.3809524 C52.0380529,66.3809524 66.819375,51.6131697 66.819375,33.3809524 C66.819375,15.1487351 52.0380529,0.380952381 33.819375,0.380952381 C15.6006971,0.380952381 0.819375,15.1487351 0.819375,33.3809524 C0.819375,51.6131697 15.6006971,66.3809524 33.819375,66.3809524 Z M33.819375,58.3809524 C20.0055471,58.3809524 8.819375,47.1812459 8.819375,33.3809524 C8.819375,19.5806588 20.0055471,8.38095238 33.819375,8.38095238 C47.6332029,8.38095238 58.819375,19.5806588 58.819375,33.3809524 C58.819375,47.1812459 47.6332029,58.3809524 33.819375,58.3809524 Z"/>
      </g>
      <g transform="translate(18.032 53.905)">
        <path fill="#1C1D1F" d="M17.0894366,54.3654204 L21.3869544,54.3654204 C21.5181324,53.9742521 21.3446748,53.7050929 20.8665816,53.5579427 C20.3884884,53.4107925 19.7316931,53.1416333 18.8961958,52.750465 L17.1852674,52.750465 L17.0894366,54.3654204 Z"/>
        <path fill="#1C1D1F" d="M2.51377022,52.5660048 L4.12600735,52.1587151 L5.02754044,53.9388951 C3.82951814,54.3717498 2.90218641,54.6409091 2.24554526,54.7463728 C1.58890411,54.8518365 0.840389019,54.8518365 0,54.7463728 C0.124844442,54.2610367 0.356516144,53.9918775 0.695015106,53.9388951 C1.20276355,53.8594215 1.7295105,53.4149926 1.99528726,53.1314174 C2.17247177,52.9423673 2.34529942,52.7538965 2.51377022,52.5660048 Z" transform="matrix(-1 0 0 1 5.028 0)"/>
        <path fill="#526284" d="M0.71310498,52.1587151 L2.92329291,52.9479131 C9.0975857,46.9332995 12.4442616,43.4482568 12.9633205,42.4927851 C13.4823794,41.5373134 15.0396646,38.4019006 17.6351762,33.0865467 C20.8516967,36.3256619 22.5717319,38.1854849 22.7952819,38.6660156 C23.0188319,39.1465464 21.1168834,43.8413628 17.0894366,52.750465 L19.4327045,52.9479131 C24.5813192,45.1460181 27.1556265,40.5877046 27.1556265,39.2729725 C27.1556265,37.9582403 25.7021783,34.5505311 22.7952819,29.0498447 L14.2300012,26.0066677 C11.2338755,33.2925466 9.42208346,37.7498461 8.794625,39.3785664 C8.16716654,41.0072866 5.47332654,45.2673362 0.71310498,52.1587151 Z"/>
        <g transform="rotate(18 10.996 69.978)">
          <path fill="#FBD1C9" d="M15.6994235,15.4244106 C17.2092171,15.7564814 18.0398171,15.853334 18.1912236,15.7149683 C20.4750091,13.6278882 21.4609104,11.6308873 21.4595003,11.3244569 C21.4569415,10.7684423 21.370372,9.91144404 21.8772535,9.61328489 C22.384135,9.31512574 23.981178,9.77822615 23.6514542,10.7626011 C23.4316384,11.4188511 23.1449667,11.9098653 22.7914393,12.2356437 C21.1458917,15.7710057 20.1068495,17.7364173 19.6743127,18.1318786 C19.2417759,18.5273399 17.7039866,18.6493326 15.060945,18.4978567 L15.6994235,15.4244106 Z"/>
          <path fill="#FBD1C9" d="M2.97967544,6.70721417 C4.48453812,7.04184625 5.31234536,7.13980881 5.46309715,7.00110183 C7.73700655,4.90887409 8.71762113,2.90583223 8.71592978,2.59833285 C8.71286086,2.04037857 8.62579178,1.18031385 9.13063541,0.881587304 C9.63547903,0.582860758 11.2274105,1.04906015 10.8997504,2.03655825 C10.6813102,2.69489031 10.3960921,3.18734865 10.044096,3.51393326 C8.40756113,7.06008267 7.3739606,9.03137581 6.94329442,9.42781268 C6.51262825,9.82424955 4.98029095,9.94523696 2.34628255,9.79077491 L2.97967544,6.70721417 Z" transform="scale(-1 1) rotate(-75 0 13.984)"/>
          <g transform="translate(6.974 3.943)">
            <path fill="#FBD1C9" d="M3.51645095,11.723076 L6.58882886,10.6514093 L6.4041412,8.72015743 C7.37054742,8.02162655 7.91712321,7.34816917 8.04386858,6.69978531 C8.23398664,5.72720951 6.73043177,3.78381041 6.3726179,2.56728074 C6.14270903,1.78561465 3.7346964,3.25076611 3.0351923,4.21840147 C2.59076084,4.83319072 2.40146756,6.12634597 2.40032614,6.79557107 C2.39964892,7.19347627 2.70222669,7.59516891 3.30805943,8.00064898 L3.51645095,11.723076 Z" transform="rotate(33 5.23 7.034)"/>
            <path fill="#1C1D1F" d="M2.37502546,8.1237963 C1.91370945,6.70929389 -0.665559072,3.37903604 2.42540677,1.0486034 C5.51637261,-1.28182923 9.09332646,1.62135064 8.68541487,3.99808053 C7.95974401,4.0991225 7.14991334,4.06552987 6.25592288,3.89730264 C6.02391268,5.08941458 5.68944785,5.66647437 5.25252838,5.62848201 C5.06386918,4.70951531 4.74358663,4.46396736 4.11579554,4.9060087 C3.69726815,5.20070293 3.69387809,5.63221512 4.10562538,6.20054526 C3.48955261,7.51487488 2.91268598,8.15595856 2.37502546,8.1237963 Z"/>
          </g>
          <path fill="#417FF9" d="M6.15250868,8.67197199 L2.25574795,10.8525959 C3.09135051,13.4147481 3.6627847,15.1668985 3.97005054,16.1090472 C3.22029057,19.1052518 1.92128914,22.8209583 0.0730462408,27.2561668 C1.35022474,28.272838 2.91353843,28.9283035 4.7629873,29.2225632 C6.61243618,29.516823 8.78083057,29.516823 11.2681705,29.2225632 C12.6349168,22.7530072 13.3775071,19.2838852 13.4959413,18.8151972 C14.2098313,18.8448199 16.3817452,18.8151972 16.3817452,18.8151972 C16.3817452,18.8151972 16.3817452,17.6823537 16.3817452,15.4166667 C14.1767201,14.7896825 12.7378351,14.3982205 12.0650899,14.2422805 C11.0559723,14.0083705 7.96336555,12.9498006 7.69454691,12.12554 C7.51533448,11.5760329 7.00132174,10.4248436 6.15250868,8.67197199 Z"/>
        </g>
      </g>
      <g fill="#E2E8F1" transform="translate(19.86 55.82)">
        <path d="M3.55497408,10.4453167 C4.38374833,10.4468437 5.0545558,9.91382958 5.0525928,8.90977474 C5.05127838,8.24040484 4.54878748,7.07586446 3.5451201,5.41615361 C2.54794945,7.07216999 2.05001904,8.23486312 2.05132886,8.90423302 C2.05329876,9.90828787 2.72619983,10.4437831 3.55497408,10.4453167 Z" transform="rotate(105 3.552 7.93)"/>
        <path d="M10.5987241,15.041253 C11.4274983,15.04278 12.0983058,14.5097659 12.0963428,13.5057111 C12.0950284,12.8363412 11.5925375,11.6718008 10.5888701,10.01209 C9.59169945,11.6681063 9.09376904,12.8307995 9.09507886,13.5001694 C9.09704876,14.5042242 9.76994983,15.0397194 10.5987241,15.041253 Z" transform="rotate(105 10.596 12.527)"/>
        <path d="M3.55497408,4.8493803 C4.38374833,4.85090732 5.0545558,4.31789323 5.0525928,3.31383838 C5.05127838,2.64446848 4.54878748,1.47992811 3.5451201,-0.179782741 C2.54794945,1.47623363 2.05001904,2.63892677 2.05132886,3.30829667 C2.05329876,4.31235152 2.72619983,4.84784671 3.55497408,4.8493803 Z" transform="rotate(105 3.552 2.335)"/>
        <path d="M10.5987241,9.44531665 C11.4274983,9.44684367 12.0983058,8.91382958 12.0963428,7.90977474 C12.0950284,7.24040484 11.5925375,6.07586446 10.5888701,4.41615361 C9.59169945,6.07216999 9.09376904,7.23486312 9.09507886,7.90423302 C9.09704876,8.90828787 9.76994983,9.44378307 10.5987241,9.44531665 Z" transform="rotate(105 10.596 6.93)"/>
      </g>
    </g>
    <g opacity=".504" transform="matrix(-1 0 0 1 160 73)">
      <g transform="translate(14.088 -1)">
        <polygon fill="url(#亮-g)" points="6 20 8 20 8 35 6 35"/>
        <path fill="url(#亮-h)" d="M6.73428104,-5.68434189e-14 C7.79791712,-5.70388056e-14 8.73002442,0.711733635 9.01017213,1.73781306 L13.7849606,19.2261312 C14.7951711,22.9261656 12.6146379,26.7445736 8.91460342,27.7547841 C8.31851171,27.9175334 7.7033655,28 7.08545558,28 C3.15575322,28 -0.0298999704,24.8143468 -0.0298999704,20.8846444 C-0.0298999704,20.3074903 0.0403218941,19.73248 0.179217756,19.1722883 L4.49933688,1.74847756 C4.75401379,0.721320175 5.67602179,-5.66490198e-14 6.73428104,-5.68434189e-14 Z"/>
      </g>
      <g transform="translate(145.85 -1)">
        <polygon fill="url(#亮-g)" points="6 20 8 20 8 35 6 35"/>
        <path fill="url(#亮-h)" d="M6.73428104,-5.68434189e-14 C7.79791712,-5.70388056e-14 8.73002442,0.711733635 9.01017213,1.73781306 L13.7849606,19.2261312 C14.7951711,22.9261656 12.6146379,26.7445736 8.91460342,27.7547841 C8.31851171,27.9175334 7.7033655,28 7.08545558,28 C3.15575322,28 -0.0298999704,24.8143468 -0.0298999704,20.8846444 C-0.0298999704,20.3074903 0.0403218941,19.73248 0.179217756,19.1722883 L4.49933688,1.74847756 C4.75401379,0.721320175 5.67602179,-5.66490198e-14 6.73428104,-5.68434189e-14 Z"/>
      </g>
      <g transform="translate(0 8.501)">
        <rect width="2.013" height="9" x="3.019" y="11.499" fill="url(#亮-i)"/>
        <path fill="url(#亮-j)" d="M3.8722116,0.498812352 C4.48400869,0.498812352 5.02035886,0.907682338 5.18243478,1.49762054 L7.91834593,11.4560306 C8.50163257,13.5791286 7.25336883,15.7730868 5.13027084,16.3563734 C4.78618733,16.4509048 4.43096975,16.4988124 4.07413696,16.4988124 C1.81795357,16.4988124 -0.0110444426,14.6698143 -0.0110444426,12.4136309 C-0.0110444426,12.0802714 0.029759279,11.748165 0.110456525,11.4247202 L2.58565176,1.50382209 C2.73299976,0.913232529 3.26351835,0.498812352 3.8722116,0.498812352 Z"/>
      </g>
    </g>
  </g>
</svg>
